<svg width="34" height="44" viewBox="0 0 34 44" fill="none" xmlns="http://www.w3.org/2000/svg">
<path d="M5.90036 4.27179C10.3863 0.331932 17.084 -0.608104 22.5998 1.54154C30.5003 4.37547 35.0691 13.7551 32.878 21.7661C31.9172 25.0977 30.051 28.0561 28.2608 30.9937C26.6295 28.1874 24.3278 25.858 21.487 24.2752C23.7887 21.8629 25.3439 18.2617 23.761 15.0407C21.8671 9.95347 14.4021 8.46047 10.8701 12.6906C7.55233 15.9531 8.51311 21.2892 11.5751 24.365C8.7412 25.7405 6.57774 28.0837 5.25063 30.9246C2.09875 27.0054 -0.424145 22.1808 0.0596964 16.9968C-0.202961 12.1031 2.30611 7.45823 5.90036 4.27179Z" fill="#7F56D8"/>
<path d="M11.4097 38.618C12.4396 33.8902 13.0963 29.0932 14.057 24.3516C15.6883 24.3585 17.3126 24.3585 18.9438 24.3585C19.9461 29.0656 20.6649 33.828 21.6188 38.5489C19.9599 40.0626 18.6397 42.3436 16.5177 43.1108C14.4303 42.3021 13.0963 40.0764 11.4097 38.618Z" fill="#7F56D8"/>
</svg>
