<svg width="366" height="84" viewBox="0 0 366 84" fill="none" xmlns="http://www.w3.org/2000/svg">
<path d="M18.4824 79.4987C13.2168 79.4987 8.95117 77.9102 5.69076 74.7279C2.42513 71.5352 0.794922 67.4518 0.794922 62.4779C0.794922 60.1029 1.27409 57.8268 2.23242 55.6445C3.20117 53.4674 4.80013 51.4102 7.02409 49.4779L40.1699 19.8945C40.321 19.7435 40.4512 19.5768 40.5658 19.3945C40.6751 19.2018 40.7324 18.9935 40.7324 18.7695C40.7324 18.4779 40.6335 18.207 40.4408 17.957C40.2585 17.6966 40.0345 17.4883 39.7741 17.332C39.5241 17.181 39.2428 17.1029 38.9408 17.1029H2.69076V1.64453H43.0658C46.6178 1.64453 49.7116 2.3737 52.3366 3.83203C54.972 5.27995 57.0345 7.27995 58.5241 9.83203C60.0085 12.3893 60.7533 15.332 60.7533 18.6654C60.7533 21.0404 60.2845 23.3268 59.3574 25.5195C58.4251 27.7018 56.9616 29.681 54.9616 31.457L21.3783 61.1445C21.3053 61.2279 21.2168 61.3477 21.1074 61.4987C20.9928 61.6393 20.9199 61.7643 20.8783 61.8737C20.8366 61.9883 20.8158 62.155 20.8158 62.3737C20.8158 62.6654 20.8887 62.9466 21.0449 63.207C21.196 63.4727 21.4199 63.681 21.7116 63.832C22.0033 63.9727 22.3366 64.0404 22.7116 64.0404H61.2949V79.4987H18.4824Z" fill="#222222"/>
<path d="M83.2005 79.4987C78.8255 79.4987 74.8516 78.4779 71.2839 76.4362C67.7266 74.3945 64.8932 71.655 62.7839 68.207C60.6693 64.7643 59.6172 60.8529 59.6172 56.4779C59.6172 53.2174 60.3359 50.1602 61.7839 47.3112C63.2266 44.4518 65.1797 41.9883 67.638 39.9154C65.263 37.9154 63.388 35.5508 62.013 32.8112C60.638 30.0612 59.9505 27.1654 59.9505 24.1237C59.9505 19.8216 60.9818 15.9779 63.0547 12.6029C65.138 9.22786 67.9193 6.5612 71.4089 4.60286C74.8932 2.63411 78.7474 1.64453 82.9714 1.64453H115.784V17.2279H85.8672C84.4609 17.2279 83.1641 17.5612 81.9714 18.2279C80.7891 18.8945 79.8464 19.7852 79.138 20.8945C78.4297 22.0091 78.0755 23.306 78.0755 24.7904C78.0755 26.1966 78.4297 27.4727 79.138 28.6237C79.8464 29.7799 80.7891 30.6654 81.9714 31.2904C83.1641 31.9154 84.4609 32.2279 85.8672 32.2279H111.992V47.8112H86.4297C84.8724 47.8112 83.4609 48.181 82.2005 48.9154C80.9349 49.6549 79.9297 50.6185 79.1797 51.8112C78.4401 52.9935 78.0755 54.3633 78.0755 55.9154C78.0755 57.405 78.4401 58.7591 79.1797 59.9779C79.9297 61.2018 80.9349 62.1445 82.2005 62.8112C83.4609 63.4779 84.8724 63.8112 86.4297 63.8112H115.784V79.4987H83.2005Z" fill="#222222"/>
<path d="M140.904 79.4987C136.081 79.4987 131.852 78.4258 128.217 76.2695C124.592 74.1185 121.779 71.2643 119.779 67.707C117.779 64.155 116.779 60.2227 116.779 55.9154V1.64453H135.446V57.2487C135.446 59.0404 136.076 60.6029 137.342 61.9362C138.602 63.2695 140.16 63.9362 142.008 63.9362H162.592V79.4987H140.904Z" fill="#222222"/>
<path d="M292.665 79.4987V63.9362H325.915C327.399 63.9362 328.732 63.5716 329.915 62.832C331.107 62.082 332.05 61.1185 332.748 59.9362C333.456 58.7435 333.811 57.4466 333.811 56.0404C333.811 54.556 333.456 53.2227 332.748 52.0404C332.05 50.8477 331.107 49.8841 329.915 49.1445C328.732 48.3945 327.399 48.0195 325.915 48.0195H313.915C309.383 48.0195 305.269 47.1341 301.561 45.3529C297.852 43.5768 294.899 40.9674 292.706 37.5195C290.524 34.0768 289.436 29.9466 289.436 25.1237C289.436 20.3737 290.467 16.2591 292.54 12.7695C294.623 9.28516 297.441 6.5612 300.998 4.60286C304.566 2.63411 308.498 1.64453 312.79 1.64453H347.165V17.2279H314.915C313.566 17.2279 312.337 17.5612 311.227 18.2279C310.113 18.8945 309.258 19.7852 308.665 20.8945C308.081 22.0091 307.79 23.2279 307.79 24.5612C307.79 25.8945 308.081 27.1029 308.665 28.1862C309.258 29.2591 310.113 30.1237 311.227 30.7904C312.337 31.457 313.566 31.7904 314.915 31.7904H327.477C332.436 31.7904 336.748 32.7383 340.415 34.6237C344.092 36.5143 346.946 39.1445 348.977 42.5195C351.019 45.8945 352.04 49.8477 352.04 54.3737C352.04 59.707 350.982 64.2487 348.873 67.9987C346.758 71.7383 343.925 74.5924 340.373 76.5612C336.816 78.5195 332.883 79.4987 328.581 79.4987H292.665Z" fill="#222222"/>
<path d="M354.923 80.8333C351.965 80.8333 349.428 79.776 347.319 77.6667C345.204 75.5573 344.152 73.0573 344.152 70.1667C344.152 67.1979 345.204 64.6563 347.319 62.5417C349.428 60.4323 351.965 59.375 354.923 59.375C357.809 59.375 360.309 60.4323 362.423 62.5417C364.548 64.6563 365.611 67.1979 365.611 70.1667C365.611 72.0833 365.121 73.8646 364.152 75.5C363.194 77.125 361.913 78.4271 360.319 79.3958C358.72 80.3542 356.923 80.8333 354.923 80.8333Z" fill="#222222"/>
<mask id="mask0_93_2248" style="mask-type:luminance" maskUnits="userSpaceOnUse" x="154" y="0" width="140" height="84">
<path d="M154.572 0.306641H293.333V83.3066H154.572V0.306641Z" fill="white"/>
</mask>
<g mask="url(#mask0_93_2248)">
<mask id="mask1_93_2248" style="mask-type:luminance" maskUnits="userSpaceOnUse" x="154" y="0" width="140" height="84">
<path d="M196.072 0.306641H251.765C262.77 0.306641 273.327 4.67643 281.109 12.4577C288.89 20.2441 293.265 30.7962 293.265 41.8066C293.265 52.8119 288.89 63.3691 281.109 71.1504C273.327 78.9316 262.77 83.3066 251.765 83.3066H196.072C185.067 83.3066 174.51 78.9316 166.729 71.1504C158.947 63.3691 154.572 52.8119 154.572 41.8066C154.572 30.7962 158.947 20.2441 166.729 12.4577C174.51 4.67643 185.067 0.306641 196.072 0.306641Z" fill="white"/>
</mask>
<g mask="url(#mask1_93_2248)">
<path d="M196.072 0.306641H251.765C262.77 0.306641 273.328 4.67644 281.109 12.4577C288.89 20.2442 293.265 30.7962 293.265 41.8067C293.265 52.8119 288.89 63.3692 281.109 71.1504C273.328 78.9317 262.77 83.3067 251.765 83.3067H196.072C185.067 83.3067 174.51 78.9317 166.729 71.1504C158.947 63.3692 154.572 52.8119 154.572 41.8067C154.572 30.7962 158.947 20.2442 166.729 12.4577C174.51 4.67644 185.067 0.306641 196.072 0.306641Z" stroke="#222222" stroke-width="29.8651"/>
</g>
</g>
</svg>
